<svg width="678" height="530" viewBox="0 0 678 530" fill="none" xmlns="http://www.w3.org/2000/svg">
<path d="M656.933 131.575C653.115 116.628 647.22 102.29 639.422 88.9797C631.932 75.1329 622.354 62.522 611.025 51.5905C594.601 35.2214 575.151 22.2013 553.758 13.2549C510.697 -4.41789 462.408 -4.41789 419.347 13.2549C399.127 21.8136 380.55 33.8247 364.446 48.7509L362.08 51.5905C345.09 68.5806 317.544 68.5806 300.553 51.5905L298.187 48.7509C282.084 33.8247 263.507 21.8136 243.287 13.2549C200.226 -4.41789 151.936 -4.41789 108.875 13.2549C87.482 22.2013 68.0323 35.2214 51.6082 51.5905C29.1446 73.4481 13.2428 101.153 5.70005 131.575C1.68734 147.024 -0.223003 162.943 0.020686 178.903C0.020686 193.953 1.91381 208.909 5.70005 223.391C9.66773 238.065 15.3883 252.207 22.7381 265.513C30.6758 279.191 40.3828 291.763 51.6082 302.902L241.36 492.654C291.042 542.336 371.592 542.336 421.273 492.654L611.025 302.902C622.242 291.922 631.849 279.333 639.422 265.513C654.794 239.251 662.805 209.332 662.613 178.903C662.858 162.943 660.948 147.023 656.933 131.575Z" fill="#1A5FFC"/>
<g filter="url(#filter0_d_1743_3734)">
<path d="M398.994 457.584C366.124 493.747 310.016 496.007 274.344 462.605L68.4319 269.79C62.847 264.56 62.4947 255.815 67.641 250.153V250.153C72.9001 244.367 81.879 244.01 87.581 249.36L285.583 435.139C315.568 463.273 362.784 461.395 390.44 430.968L431.809 385.453C436.31 380.502 443.973 380.136 448.924 384.637V384.637C453.876 389.137 454.242 396.8 449.741 401.752L398.994 457.584Z" fill="white"/>
</g>
<g filter="url(#filter1_d_1743_3734)">
<path fill-rule="evenodd" clip-rule="evenodd" d="M586.796 268.6C598.575 254.683 607.109 239.481 612.397 222.994C617.685 206.507 619.627 189.359 618.225 171.55C616.599 153.858 611.253 136.416 602.186 119.225C593.119 102.033 581.744 87.771 568.062 76.438C554.157 65.2228 538.908 57.1417 522.316 52.1947C505.5 47.3656 488.082 45.9932 470.062 48.0777C451.924 49.939 434.036 55.5208 416.397 64.8233C399.429 73.7725 384.996 85.0943 373.099 98.7887C363.919 109.081 357.001 120.347 352.345 132.585C349.917 138.968 353.797 145.784 360.322 147.802V147.802C367.146 149.914 374.298 145.998 377.115 139.433C381.283 129.722 386.714 121.164 393.409 113.76C402.664 103.172 413.989 94.3452 427.385 87.28C441.451 79.8616 455.807 75.429 470.454 73.9822C484.984 72.3121 499.069 73.5874 512.709 77.8079C526.232 81.8052 538.682 88.3663 550.058 97.4911C561.093 106.51 570.32 118.053 577.738 132.119C585.157 146.185 589.53 160.429 590.859 174.853C591.847 189.171 590.231 203.151 586.011 216.792C581.672 230.209 574.77 242.553 565.304 253.824L586.796 268.6Z" fill="white"/>
<path d="M485.808 350.805C480.979 345.977 480.979 338.148 485.808 333.32L565.304 253.824L586.796 268.6L503.224 350.873C498.385 355.637 490.609 355.607 485.808 350.805V350.805Z" fill="white"/>
<rect x="486.837" y="133.275" width="135.586" height="26.4306" rx="13.2153" transform="rotate(90 486.837 133.275)" fill="white"/>
<rect x="541.47" y="214.227" width="135.586" height="26.4306" rx="13.2153" transform="rotate(-180 541.47 214.227)" fill="white"/>
</g>
<defs>
<filter id="filter0_d_1743_3734" x="45.8268" y="233.454" width="425.238" height="277.031" filterUnits="userSpaceOnUse" color-interpolation-filters="sRGB">
<feFlood flood-opacity="0" result="BackgroundImageFix"/>
<feColorMatrix in="SourceAlpha" type="matrix" values="0 0 0 0 0 0 0 0 0 0 0 0 0 0 0 0 0 0 127 0" result="hardAlpha"/>
<feOffset dy="6.05798"/>
<feGaussianBlur stdDeviation="9.08698"/>
<feComposite in2="hardAlpha" operator="out"/>
<feColorMatrix type="matrix" values="0 0 0 0 0 0 0 0 0 0 0 0 0 0 0 0 0 0 0.25 0"/>
<feBlend mode="normal" in2="BackgroundImageFix" result="effect1_dropShadow_1743_3734"/>
<feBlend mode="normal" in="SourceGraphic" in2="effect1_dropShadow_1743_3734" result="shape"/>
</filter>
<filter id="filter1_d_1743_3734" x="333.442" y="35.019" width="303.398" height="343.639" filterUnits="userSpaceOnUse" color-interpolation-filters="sRGB">
<feFlood flood-opacity="0" result="BackgroundImageFix"/>
<feColorMatrix in="SourceAlpha" type="matrix" values="0 0 0 0 0 0 0 0 0 0 0 0 0 0 0 0 0 0 127 0" result="hardAlpha"/>
<feOffset dy="6.05798"/>
<feGaussianBlur stdDeviation="9.08698"/>
<feComposite in2="hardAlpha" operator="out"/>
<feColorMatrix type="matrix" values="0 0 0 0 0 0 0 0 0 0 0 0 0 0 0 0 0 0 0.25 0"/>
<feBlend mode="normal" in2="BackgroundImageFix" result="effect1_dropShadow_1743_3734"/>
<feBlend mode="normal" in="SourceGraphic" in2="effect1_dropShadow_1743_3734" result="shape"/>
</filter>
</defs>
</svg>
